<svg t="1650258517721" class="icon" viewBox="0 0 1024 1024" version="1.1" xmlns="http://www.w3.org/2000/svg" p-id="1439" width="200" height="200"><path d="M824.71424 71.68H259.26656a81.80224 81.80224 0 0 0-81.52064 81.92v97.2032h-26.624a28.3392 28.3392 0 0 0 0 56.6784h26.624v169.984h-26.624a28.3392 28.3392 0 0 0 0 56.6784h26.624v169.984h-26.624a28.3392 28.3392 0 0 0 0 56.6784h26.624V870.4a81.80224 81.80224 0 0 0 81.52064 81.92h565.44768A81.80224 81.80224 0 0 0 906.24 870.4V153.6a81.80224 81.80224 0 0 0-81.52576-81.92z m25.088 798.72a25.18528 25.18528 0 0 1-25.088 25.216H259.26656a25.18528 25.18528 0 0 1-25.088-25.216v-109.60896H249.856a28.3392 28.3392 0 0 0 0-56.6784h-15.6928v-169.984H249.856a28.3392 28.3392 0 0 0 0-56.6784h-15.6928v-169.984H249.856a28.3392 28.3392 0 0 0 0-56.6784h-15.6928V153.6a25.18528 25.18528 0 0 1 25.088-25.216h565.46304A25.18528 25.18528 0 0 1 849.8176 153.6v716.8z" p-id="1440"></path><path d="M677.62176 554.46528h-97.10592v-49.93536h97.10592a28.27264 28.27264 0 0 0 0-56.5504h-65.5616l79.46752-79.96416a28.39552 28.39552 0 0 0 0-39.9872 27.9808 27.9808 0 0 0-39.73632 0l-101.23776 101.888-101.23776-101.888a27.97568 27.97568 0 0 0-39.73632 0 28.39552 28.39552 0 0 0 0 39.9872L489.04704 448H427.20768a28.27264 28.27264 0 0 0 0 56.5504h97.10592v49.93536H427.20768a28.27776 28.27776 0 0 0 0 56.5504h97.10592v67.712a28.10368 28.10368 0 1 0 56.20224 0v-67.73248h97.10592a28.27776 28.27776 0 0 0 0-56.5504z" p-id="1441"></path></svg>