<svg t="1650258558884" class="icon" viewBox="0 0 1024 1024" version="1.1" xmlns="http://www.w3.org/2000/svg" p-id="1715" width="200" height="200"><path d="M861.06624 152.32512h-61.056V111.5136a29.80352 29.80352 0 0 0-59.60704 0v40.81152h-189.23008V111.5136a29.80352 29.80352 0 0 0-59.60704 0v40.81152h-189.2352V111.5136a29.80352 29.80352 0 0 0-59.60704 0v40.81152H168.064A85.90336 85.90336 0 0 0 81.92 237.80352V861.696A85.90336 85.90336 0 0 0 168.064 947.2h693.00224A85.90336 85.90336 0 0 0 947.2 861.696V237.80352a85.89824 85.89824 0 0 0-86.13376-85.4784z m26.51648 709.37088a26.44992 26.44992 0 0 1-26.51648 26.32192H168.064a26.44992 26.44992 0 0 1-26.51648-26.32192V237.80352a26.4448 26.4448 0 0 1 26.51648-26.3168h74.65984v28.79488a29.80352 29.80352 0 0 0 59.60704 0v-28.79488h189.2352v28.79488a29.80352 29.80352 0 0 0 59.60704 0v-28.79488h189.23008v28.79488a29.80352 29.80352 0 0 0 59.60704 0v-28.79488h61.056a26.4448 26.4448 0 0 1 26.51648 26.3168V861.696z" p-id="1716"></path><path d="M290.17088 822.67648a29.63968 29.63968 0 0 1-29.8752-29.40416v-226.92864a29.88032 29.88032 0 0 1 59.7504 0v226.92864a29.63968 29.63968 0 0 1-29.8752 29.40416z m149.59104 0a29.63968 29.63968 0 0 1-29.8752-29.40416V520.2944a29.88032 29.88032 0 0 1 59.7504 0v272.97792a29.63968 29.63968 0 0 1-29.8752 29.40416z m149.59616 0a29.63968 29.63968 0 0 1-29.8752-29.40416V465.72032a29.88032 29.88032 0 0 1 59.7504 0v327.552a29.63968 29.63968 0 0 1-29.8752 29.40416z m149.59104 0a29.63968 29.63968 0 0 1-29.8752-29.40416v-380.416a29.88032 29.88032 0 0 1 59.7504 0v380.416a29.63968 29.63968 0 0 1-29.8752 29.40416z" p-id="1717"></path></svg>