<svg t="1650257829231" class="icon" viewBox="0 0 1024 1024" version="1.1" xmlns="http://www.w3.org/2000/svg" p-id="1163" width="200" height="200"><path d="M537.55392 942.08a73.64096 73.64096 0 0 1-52.2752-21.6576L98.304 532.76672a74.40896 74.40896 0 0 1-20.8384-63.45216l49.152-325.16608a58.48576 58.48576 0 0 1 55.48032-49.664L505.50784 81.92a74.30656 74.30656 0 0 1 55.13216 21.64736l370.05824 370.688a74.24 74.24 0 0 1 0 104.73472L589.824 920.40192A73.64096 73.64096 0 0 1 537.55392 942.08z m-13.64992-60.35456a19.3024 19.3024 0 0 0 27.29984 0l340.85888-341.4272a19.38944 19.38944 0 0 0 0-27.3408l-370.04288-370.688a19.456 19.456 0 0 0-14.39232-5.632L184.20224 149.1456a3.77344 3.77344 0 0 0-3.584 3.18976l-49.152 325.1712a19.456 19.456 0 0 0 5.4528 16.57344z" p-id="1164"></path><path d="M399.9744 527.21152a132.06528 132.06528 0 1 1 131.90656-132.0704 132.14208 132.14208 0 0 1-131.90656 132.0704z m0-209.24928a77.184 77.184 0 1 0 77.09184 77.17888A77.23008 77.23008 0 0 0 399.9744 317.952z m152.62208 424.00768a27.4432 27.4432 0 0 1-19.2256-47.0016l170.496-167.936a27.42272 27.42272 0 0 1 38.44608 39.1168l-170.496 167.936a27.32032 27.32032 0 0 1-19.22048 7.8848z" p-id="1165"></path></svg>